<?xml version="1.0" encoding="utf-8"?>
<!-- Generator: Adobe Illustrator 26.0.1, SVG Export Plug-In . SVG Version: 6.00 Build 0)  -->
<svg version="1.1" id="Layer_1" xmlns="http://www.w3.org/2000/svg" xmlns:xlink="http://www.w3.org/1999/xlink" x="0px" y="0px"
	 viewBox="0 0 473 481" style="enable-background:new 0 0 473 481;" xml:space="preserve">
<style type="text/css">
	.st0{fill:#FFFFFF;}
	.st1{fill:none;stroke:#0079C4;stroke-width:15;stroke-linecap:round;stroke-miterlimit:10;}
	.st2{fill:none;stroke:#0079C4;stroke-width:18;stroke-linecap:round;stroke-miterlimit:10;}
	.st3{fill:#0079C4;}
</style>
<g>
	<path class="st0" d="M257.8,481H36c-11,0-20-8.5-20-19V223.5h361v36.7H259L257.8,481z"/>
	<polyline class="st1" points="144.2,400.5 169.9,374.9 195.5,400.5 	"/>
	<line class="st1" x1="169.9" y1="378.2" x2="170.5" y2="443"/>
	<polyline class="st1" points="58,400.5 83.6,374.9 109.2,400.5 	"/>
	<line class="st1" x1="83.6" y1="378.2" x2="84.2" y2="443"/>
	<circle class="st0" cx="384" cy="89" r="89"/>
	<path class="st0" d="M434,481H292c-5.5,0-10-4.5-10-10V297c0-5.5,4.5-10,10-10h142c5.5,0,10,4.5,10,10v174
		C444,476.5,439.5,481,434,481z"/>
	<polyline class="st2" points="428,57 363,122 339,100 	"/>
	<line class="st1" x1="313.8" y1="319.3" x2="415" y2="319"/>
	<line class="st1" x1="313.8" y1="357.3" x2="415" y2="357"/>
	<line class="st1" x1="313.8" y1="395.3" x2="415" y2="395"/>
	<line class="st1" x1="313.8" y1="433.3" x2="356" y2="433"/>
	<line class="st1" x1="392" y1="455.3" x2="415" y2="455"/>
	<path class="st0" d="M284.7,147H10c-5.5,0-10,4.5-10,10v37c0,5.5,4.5,10,10,10h371c0.2,0,0.4,0,0.6,0
		C340.2,203.1,304.3,180.4,284.7,147z"/>
	<polygon class="st3" points="240,290 196.5,257 153,290 153,147 240,147 	"/>
</g>
</svg>
