<?xml version="1.0" encoding="utf-8"?>
<!-- Generator: Adobe Illustrator 26.0.1, SVG Export Plug-In . SVG Version: 6.00 Build 0)  -->
<svg version="1.1" id="Layer_1" xmlns="http://www.w3.org/2000/svg" xmlns:xlink="http://www.w3.org/1999/xlink" x="0px" y="0px"
	 viewBox="0 0 329 456" style="enable-background:new 0 0 329 456;" xml:space="preserve">
<style type="text/css">
	.st0{fill:#FFFFFF;}
	.st1{fill:none;stroke:#0079C4;stroke-width:18;stroke-miterlimit:10;}
	.st2{fill:none;stroke:#0079C4;stroke-width:18;stroke-linecap:round;stroke-miterlimit:10;}
	.st3{fill:none;stroke:#0079C4;stroke-width:14;stroke-linecap:round;stroke-miterlimit:10;}
</style>
<g>
	<path class="st0" d="M33.1,0H20C9,0,0,9,0,20v416c0,11,9,20,20,20h289c11,0,20-9,20-20V86.8L243.3,0h-78.8H33.1z"/>
	<polyline class="st1" points="235.5,0 235.5,94.3 329,94.3 	"/>
	<line class="st2" x1="144" y1="94.3" x2="49.9" y2="94.3"/>
	<line class="st2" x1="280" y1="408.6" x2="185.9" y2="408.6"/>
	<line class="st2" x1="185.9" y1="141.5" x2="49.9" y2="141.5"/>
	<path class="st3" d="M59.9,358.8h210c5.5,0,10-4.5,10-10V326c0-5.5-4.5-10-10-10h-210c-5.5,0-10,4.5-10,10v22.9
		C49.9,354.4,54.4,358.8,59.9,358.8z"/>
	<path class="st3" d="M223.7,270.5H270c5.5,0,10-4.5,10-10v-60.4c0-5.5-4.5-10-10-10h-46.3c-5.5,0-10,4.5-10,10v60.4
		C213.7,266,218.2,270.5,223.7,270.5z"/>
	<path class="st3" d="M59.9,270.5h94.6c5.5,0,10-4.5,10-10v-60.4c0-5.5-4.5-10-10-10H59.9c-5.5,0-10,4.5-10,10v60.4
		C49.9,266,54.4,270.5,59.9,270.5z"/>
</g>
</svg>
