<?xml version="1.0" encoding="utf-8"?>
<!-- Generator: Adobe Illustrator 26.0.1, SVG Export Plug-In . SVG Version: 6.00 Build 0)  -->
<svg version="1.1" id="Capa_1" xmlns="http://www.w3.org/2000/svg" xmlns:xlink="http://www.w3.org/1999/xlink" x="0px" y="0px"
	 viewBox="0 0 551.4 471.4" style="enable-background:new 0 0 551.4 471.4;" xml:space="preserve">
<style type="text/css">
	.st0{fill-rule:evenodd;clip-rule:evenodd;fill:#FFFFFF;}
	.st1{fill:#FFFFFF;}
	.st2{fill:none;}
</style>
<g>
	<g>
		<g>
			<path class="st0" d="M95.2,0C42.6,0,0,42.6,0,95.2c0,52.6,95.2,158.7,95.2,158.7s95.2-106.1,95.2-158.7
				C190.4,42.6,147.8,0,95.2,0z M95.2,134.9c-26.3,0-47.6-21.3-47.6-47.6c0-26.3,21.3-47.6,47.6-47.6c26.3,0,47.6,21.3,47.6,47.6
				C142.8,113.6,121.5,134.9,95.2,134.9z"/>
		</g>
	</g>
	<path class="st1" d="M222.5,84.5c0,70.3-127.3,212.1-127.3,212.1s-40.5-45.2-75.9-97.2v55.7v86.9c0,4.3,3.5,7.9,7.9,7.9h266
		c4.3,0,7.9-3.5,7.9-7.9V107.5c0-13.1-10.5-23.6-23.6-23.6h-55C222.5,84.1,222.5,84.3,222.5,84.5z"/>
	<path class="st1" d="M159.7,373.4c-27,0-48.9,22-48.9,49c0,27,22,48.9,48.9,48.9c27.1,0,48.9-22,48.9-48.9
		C208.7,395.4,186.8,373.4,159.7,373.4z M159.7,445.4c-12.7,0-22.9-10.3-22.9-22.9c0-12.7,10.2-22.9,22.9-22.9
		c12.7,0,22.9,10.2,22.9,22.9C182.6,435.1,172.4,445.4,159.7,445.4z"/>
	<path class="st1" d="M415.9,373.4c-27.1,0-48.9,22-48.9,49c0,27,21.9,48.9,48.9,48.9c27,0,48.9-22,48.9-48.9
		C464.9,395.4,442.9,373.4,415.9,373.4z M415.9,445.4c-12.7,0-22.9-10.3-22.9-22.9c0-12.7,10.2-22.9,22.9-22.9
		c12.7,0,22.9,10.2,22.9,22.9C438.8,435.1,428.6,445.4,415.9,445.4z"/>
	<path class="st2" d="M433.3,178.7c-1.5-2-3.9-3.3-6.5-3.3h-59.7c-4.3,0-7.9,3.5-7.9,7.9V246c0,4.4,3.5,7.9,7.9,7.9h101
		c6.4,0,10.1-7.2,6.5-12.4L433.3,178.7z"/>
	<path class="st2" d="M201.9,373.4c11.6,10,19.5,23.9,21.8,39.7h4.6c-1.3-15.2-7.5-28.9-17-39.7H201.9z"/>
	<path class="st2" d="M433.3,178.7c-1.5-2-3.9-3.3-6.5-3.3h-59.7c-4.3,0-7.9,3.5-7.9,7.9V246c0,4.4,3.5,7.9,7.9,7.9h101
		c6.4,0,10.1-7.2,6.5-12.4L433.3,178.7z"/>
	<path class="st1" d="M7.9,373.4L7.9,373.4c-4.3,0-7.9,3.5-7.9,7.9v23.9c0,4.3,3.5,7.9,7.9,7.9h83.3c1.3-15.2,7.5-28.9,17-39.7H7.9z
		"/>
	<path class="st2" d="M433.3,178.7c-1.5-2-3.9-3.3-6.5-3.3h-59.7c-4.3,0-7.9,3.5-7.9,7.9V246c0,4.4,3.5,7.9,7.9,7.9h101
		c6.4,0,10.1-7.2,6.5-12.4L433.3,178.7z"/>
	<path class="st1" d="M543.6,373.4h-19.1V266.5c0-12.5-3.8-24.8-10.8-35.2l-47.9-71c-11.7-17.3-31.2-27.7-52.2-27.7h-74.3
		c-8.7,0-15.7,7.1-15.7,15.7v225H211.3c9.5,10.8,15.7,24.5,17,39.7h119.5c3-35.2,32.6-62.9,68.6-62.9c36,0,65.6,27.7,68.6,62.9h58.5
		c4.3,0,7.9-3.5,7.9-7.9v-23.9C551.4,377,547.9,373.4,543.6,373.4z M468.2,253.9h-101c-4.3,0-7.9-3.5-7.9-7.9v-62.8
		c0-4.3,3.5-7.9,7.9-7.9h59.7c2.6,0,5,1.3,6.5,3.3l41.3,62.8C478.3,246.7,474.6,253.9,468.2,253.9z"/>
</g>
</svg>
