<?xml version="1.0" encoding="utf-8"?>
<!-- Generator: Adobe Illustrator 25.4.1, SVG Export Plug-In . SVG Version: 6.00 Build 0)  -->
<svg version="1.1" id="Layer_1" xmlns="http://www.w3.org/2000/svg" xmlns:xlink="http://www.w3.org/1999/xlink" x="0px" y="0px"
	 viewBox="0 0 418.7 419.3" style="enable-background:new 0 0 418.7 419.3;" xml:space="preserve">
<style type="text/css">
	.st0{fill:#0079C4;}
</style>
<path class="st0" d="M0,419.3h37.2c3.1-92.4,79-166.3,172.2-166.3s169,73.9,172.2,166.3h37.2c-0.7-92.7-61.5-171-145.5-197.9
	c33.7-21.2,56.1-58.8,56.1-101.5C329.4,53.7,275.7,0,209.5,0S89.6,53.7,89.6,119.9c0,42.7,22.4,80.3,56,101.5
	C61.6,248.2,0.7,326.6,0,419.3z M131.2,119.9c0-43.3,35.1-78.3,78.3-78.3s78.3,35.1,78.3,78.3s-35.1,78.3-78.3,78.3
	S131.2,163.1,131.2,119.9z"/>
</svg>
