<?xml version="1.0" encoding="utf-8"?>
<!-- Generator: Adobe Illustrator 23.1.0, SVG Export Plug-In . SVG Version: 6.00 Build 0)  -->
<svg version="1.1" id="Layer_1" xmlns="http://www.w3.org/2000/svg" xmlns:xlink="http://www.w3.org/1999/xlink" x="0px" y="0px"
	 viewBox="0 0 45.17 44.97" style="enable-background:new 0 0 45.17 44.97;" xml:space="preserve">
<style type="text/css">
	.st0{stroke: #ffffff; fill: rgba(0,0,0,0);}
	.st1{fill:#FFFFFF;}
</style>
<g>
	<path class="st0" d="M22.56,0.22c-6.93,0-13.12,3.18-17.21,8.15l2.83-0.02l1.62,5.94l27.48-0.09c0.61,0,1.14,0.26,1.49,0.79
		c0.35,0.44,0.44,1.05,0.26,1.67l-3.16,12.4c-0.18,0.7-0.88,1.23-1.67,1.23H13.09c-1.31,0-2.54-0.88-2.89-2.1L5.27,11.31H3.31
		c-1.91,3.29-3.02,7.1-3.02,11.17c0,12.28,9.99,22.26,22.26,22.26s22.26-9.99,22.26-22.26C44.82,10.2,34.83,0.22,22.56,0.22z"/>
	<path class="st0" d="M14.69,27.24h17.63c0.15,0,0.29-0.07,0.37-0.22l2.69-9.32c0.07-0.22,0-0.29-0.07-0.37
		c-0.07-0.07-0.15-0.15-0.29-0.15l-24.44,0.09l2.8,9.02C13.51,26.87,14.1,27.24,14.69,27.24z"/>
</g>
<circle class="st1" cx="30.2" cy="36.28" r="3.16"/>
<circle class="st1" cx="15.3" cy="36.28" r="3.16"/>
</svg>
