<?xml version="1.0" encoding="utf-8"?>
<!-- Generator: Adobe Illustrator 23.1.0, SVG Export Plug-In . SVG Version: 6.00 Build 0)  -->
<svg version="1.1" id="Layer_1" xmlns="http://www.w3.org/2000/svg" xmlns:xlink="http://www.w3.org/1999/xlink" x="0px" y="0px"
	 viewBox="0 0 491.29 488.36" style="enable-background:new 0 0 491.29 488.36;" xml:space="preserve">
<style type="text/css">
	.st0{fill:#0079C4;}
</style>
<path class="st0" d="M77.8,417.79c12.29-61.44,57.34-110.59,116.22-129.54c-27.65-17.41-46.08-48.13-46.08-82.94
	c0-53.76,44.03-97.79,97.79-97.79s97.79,43.52,97.79,97.28c0,34.82-18.43,65.54-46.08,82.94c58.83,18.42,103.86,68.01,116.19,129.38
	c45.19-43.89,73.25-105.32,73.25-173.41C487.4,110.59,378.86,2.04,245.23,2.04C112.11,2.04,3.56,110.59,3.56,243.71
	c0,68.56,28.44,130.38,74.18,174.34L77.8,417.79z"/>
<path class="st0" d="M245.23,269.81c35.68,0,64.5-28.82,64.5-64.5s-28.82-64.5-64.5-64.5s-64.5,28.82-64.5,64.5
	C180.73,240.53,209.55,269.81,245.23,269.81z"/>
<path class="st0" d="M245.23,316.09c-73.78,0-134.27,54.93-139.97,124.73c39.47,28.06,87.77,44.54,139.97,44.54
	c52.2,0,100.5-16.49,139.97-44.54C379.5,371.03,319.01,316.09,245.23,316.09z"/>
</svg>
