<?xml version="1.0" encoding="utf-8"?>
<!-- Generator: Adobe Illustrator 24.0.1, SVG Export Plug-In . SVG Version: 6.00 Build 0)  -->
<svg version="1.1" id="Layer_1" xmlns="http://www.w3.org/2000/svg" xmlns:xlink="http://www.w3.org/1999/xlink" x="0px" y="0px"
	 viewBox="0 0 25.5 25.6" style="enable-background:new 0 0 25.5 25.6;" xml:space="preserve">
<style type="text/css">
	.st0{fill:#0079C4;}
</style>
<g>
	<path class="st0" d="M15.7,8.3c1,0,1.9-0.8,2-1.9c0-1.1-0.8-2-1.9-2c-1,0-1.9,0.8-2,1.9C13.8,7.4,14.6,8.3,15.7,8.3z"/>
	<path class="st0" d="M5.3,11c-1,0-1.9,0.8-2,1.9c0,1.1,0.8,1.9,1.9,2c1,0,1.9-0.8,2-1.9C7.2,11.9,6.4,11,5.3,11z"/>
	<path class="st0" d="M12.7,0.2c-7,0-12.6,5.6-12.6,12.6s5.6,12.6,12.6,12.6s12.6-5.6,12.6-12.6S19.7,0.2,12.7,0.2z M18.8,21.7
		c-2.1,0.3-3.9-1.3-3.9-3.4c0-0.1,0-0.2-0.2-0.2c-2.2-0.9-4.5-1.8-6.7-2.8c-0.1-0.1-0.2,0-0.3,0.1c-1,0.9-2.1,1.2-3.4,0.9
		C3,15.8,2.2,15,1.9,13.7c-0.5-2,0.9-3.9,3-4.2c0.9-0.1,1.7,0.1,2.4,0.6c0.1,0.1,0.2,0.1,0.3,0c1.5-1,3-1.9,4.5-2.8
		c0.2-0.1,0.2-0.2,0.2-0.4C12,5.1,13.1,3.5,14.8,3c2.1-0.6,4.3,1.1,4.3,3.3c0,1.4-0.6,2.5-1.9,3.1c-1.2,0.6-2.5,0.5-3.6-0.3
		c0,0-0.1,0-0.1-0.1c-0.7,0.4-1.4,0.9-2.1,1.3c-0.9,0.5-1.7,1.1-2.6,1.6c-0.1,0.1-0.2,0.1-0.2,0.3c0,0.2,0,0.4,0,0.6
		c0,0.1,0,0.2,0.2,0.2c1.5,0.6,3,1.2,4.5,1.9c0.7,0.3,1.5,0.6,2.2,0.9c0.1,0.1,0.2,0,0.3-0.1c1-1,2.2-1.3,3.6-0.8
		c1.3,0.4,2.1,1.4,2.3,2.8C22.1,19.7,20.7,21.5,18.8,21.7z"/>
	<path class="st0" d="M18.4,16.4c-1,0-1.9,0.8-2,1.9c0,1.1,0.8,1.9,1.9,2c1,0,1.9-0.8,2-1.9C20.3,17.3,19.5,16.4,18.4,16.4z"/>
</g>
</svg>
