<?xml version="1.0" encoding="utf-8"?>
<!-- Generator: Adobe Illustrator 24.0.1, SVG Export Plug-In . SVG Version: 6.00 Build 0)  -->
<svg version="1.1" id="Layer_1" xmlns="http://www.w3.org/2000/svg" xmlns:xlink="http://www.w3.org/1999/xlink" x="0px" y="0px"
	 viewBox="0 0 25.5 25.6" style="enable-background:new 0 0 25.5 25.6;" xml:space="preserve">
<style type="text/css">
	.st0{fill:#0079C4;}
</style>
<g>
	<path class="st0" d="M16.6,6.5c-1,0.1-1.8,0.6-2.5,1.3c-0.4,0.4-0.8,0.9-1.3,1.4c-0.2-0.2-0.2-0.3-0.3-0.4
		c-0.5-0.4-0.9-0.9-1.4-1.3C9.8,6.6,8.5,6.2,7,6.7c-2,0.6-3.4,2.7-2.9,4.8c0.2,1.1,0.8,2,1.6,2.8c2.3,2.3,4.6,4.6,6.9,6.9
		c0,0,0.1,0.1,0.1,0.1c0.1,0,0.1-0.1,0.1-0.1c2.3-2.3,4.6-4.6,6.9-6.9c0.3-0.3,0.5-0.6,0.8-0.9c1.2-1.7,1.3-3.7,0-5.2
		C19.5,6.9,18.2,6.3,16.6,6.5z"/>
	<path class="st0" d="M12.7,0.2C5.8,0.2,0.1,5.8,0.1,12.8s5.6,12.6,12.6,12.6s12.6-5.6,12.6-12.6S19.7,0.2,12.7,0.2z M21,15.3
		c-2.6,2.6-5.1,5.1-7.7,7.7c-0.4,0.4-0.8,0.4-1.3,0c-2.6-2.6-5.1-5.1-7.7-7.7c-0.9-0.9-1.6-1.8-1.9-3c-0.7-2.2,0-4.7,1.8-6.2
		c1.2-1,2.6-1.5,4.2-1.5c1.3,0.1,2.5,0.6,3.5,1.4c0.3,0.2,0.6,0.5,0.8,0.7c0.6-0.4,1.1-0.9,1.7-1.2C18,3.4,22,5.5,23,8.9
		c0.5,1.6,0.2,3.1-0.6,4.6C22.1,14.2,21.6,14.8,21,15.3z"/>
</g>
</svg>
