<?xml version="1.0" encoding="utf-8"?>
<!-- Generator: Adobe Illustrator 25.4.1, SVG Export Plug-In . SVG Version: 6.00 Build 0)  -->
<svg version="1.1" id="Layer_1" xmlns="http://www.w3.org/2000/svg" xmlns:xlink="http://www.w3.org/1999/xlink" x="0px" y="0px"
	 viewBox="0 0 35.8 31.1" style="enable-background:new 0 0 35.8 31.1;" xml:space="preserve">
<style type="text/css">
	.st0{fill:#FFFFFF;}
</style>
<g>
	<path class="st0" d="M1.5,3H2l4.9,16.9c0.4,1.2,1.6,2.1,2.9,2.1h21.1c0.8,0,1.5-0.5,1.7-1.2l3.2-12.4c0.2-0.6,0.1-1.2-0.3-1.7
		c-0.3-0.5-0.9-0.8-1.5-0.8L6.5,5.9L4.9,0L1.5,0C0.7,0,0,0.7,0,1.5v0C0,2.3,0.7,3,1.5,3z M31.7,8.8c0.1,0,0.2,0.1,0.3,0.1
		c0.1,0.1,0.1,0.2,0.1,0.4l-2.7,9.3c-0.1,0.2-0.2,0.2-0.4,0.2H11.4c-0.6,0-1.2-0.4-1.3-1l-2.8-9L31.7,8.8z"/>
	<path class="st0" d="M12,24.8c-1.7,0-3.2,1.4-3.2,3.2s1.4,3.2,3.2,3.2c1.7,0,3.2-1.4,3.2-3.2S13.7,24.8,12,24.8z"/>
	<path class="st0" d="M26.9,24.8c-1.7,0-3.2,1.4-3.2,3.2s1.4,3.2,3.2,3.2s3.2-1.4,3.2-3.2S28.6,24.8,26.9,24.8z"/>
</g>
</svg>
