<?xml version="1.0" encoding="utf-8"?>
<!-- Generator: Adobe Illustrator 24.0.1, SVG Export Plug-In . SVG Version: 6.00 Build 0)  -->
<svg version="1.1" id="Layer_1" xmlns="http://www.w3.org/2000/svg" xmlns:xlink="http://www.w3.org/1999/xlink" x="0px" y="0px"
	 viewBox="0 0 45 45.1" style="enable-background:new 0 0 45 45.1;" xml:space="preserve">
<style type="text/css">
	.st0{fill:#FFFFFF;}
</style>
<g>
	<path class="st0" d="M22.5,0.3c-6.9,0-13.1,3.2-17.2,8.2l2.8,0l1.6,5.9l27.5-0.1c0.6,0,1.1,0.3,1.5,0.8c0.4,0.4,0.4,1.1,0.3,1.7
		l-3.2,12.4c-0.2,0.7-0.9,1.2-1.7,1.2H13.1c-1.3,0-2.5-0.9-2.9-2.1L5.2,11.3h-2c-1.9,3.3-3,7.1-3,11.2c0,12.3,10,22.3,22.3,22.3
		s22.3-10,22.3-22.3C44.8,10.2,34.8,0.3,22.5,0.3z M15.3,39.5c-1.7,0-3.2-1.4-3.2-3.2s1.4-3.2,3.2-3.2c1.7,0,3.2,1.4,3.2,3.2
		S17,39.5,15.3,39.5z M30.2,39.5c-1.7,0-3.2-1.4-3.2-3.2s1.4-3.2,3.2-3.2s3.2,1.4,3.2,3.2S31.9,39.5,30.2,39.5z"/>
	<path class="st0" d="M14.6,27.3h17.6c0.1,0,0.3-0.1,0.4-0.2l2.7-9.3c0.1-0.2,0-0.3-0.1-0.4c-0.1-0.1-0.1-0.1-0.3-0.1l-24.4,0.1
		l2.8,9C13.5,26.9,14.1,27.3,14.6,27.3z"/>
</g>
</svg>
