<?xml version="1.0" encoding="utf-8"?>
<!-- Generator: Adobe Illustrator 24.0.1, SVG Export Plug-In . SVG Version: 6.00 Build 0)  -->
<svg version="1.1" id="Layer_1" xmlns="http://www.w3.org/2000/svg" xmlns:xlink="http://www.w3.org/1999/xlink" x="0px" y="0px"
	 viewBox="0 0 75.2 53.3" style="enable-background:new 0 0 75.2 53.3;" xml:space="preserve">
<style type="text/css">
	.st0{fill:#FFFFFF;stroke:#FFFFFF;stroke-width:0.5;stroke-miterlimit:10;}
</style>
<path class="st0" d="M26.9,32.8l6.5,3.3l2.5,1.2c0,0,0,0,0,0l15.9,8L72.6,2.4l-69,21.1l14.8,6c11.2-5.8,24.3-12.2,35.7-17.7
	c2.4-1.2,4.9,0.4,1.4,2.8L26.9,32.8L26.9,32.8z M17.8,30.8L1,24l0,0c-0.2-0.1-0.4-0.3-0.5-0.5c-0.1-0.4,0.1-0.8,0.6-0.9L73.6,0.6
	c0.2-0.1,0.3-0.1,0.5,0c0.4,0.1,0.6,0.6,0.5,1l-21.7,45h0c0,0,0,0.1,0,0.1c-0.2,0.4-0.7,0.5-1,0.3L35.7,39L23.1,52.7
	c-0.3,0.3-0.8,0.3-1.1,0c-0.1-0.1-0.2-0.3-0.2-0.5L17.8,30.8L17.8,30.8z M54.9,13.1L19.4,30.7l3.1,16.8l2.1-14.6
	c0-0.1,0-0.2,0.1-0.3c0.1-0.1,0.2-0.2,0.3-0.3L54.9,13.1L54.9,13.1z M26,34.1l-2.3,15.7l10.6-11.6L26,34.1L26,34.1z"/>
</svg>
