<?xml version="1.0" encoding="utf-8"?>
<!-- Generator: Adobe Illustrator 25.4.1, SVG Export Plug-In . SVG Version: 6.00 Build 0)  -->
<svg version="1.1" id="Layer_1" xmlns="http://www.w3.org/2000/svg" xmlns:xlink="http://www.w3.org/1999/xlink" x="0px" y="0px"
	 viewBox="0 0 47.5 46.1" style="enable-background:new 0 0 47.5 46.1;" xml:space="preserve">
<style type="text/css">
	.st0{fill:none;stroke:#FFFFFF;stroke-width:2;stroke-miterlimit:10;}
	.st1{fill:#FFFFFF;}
</style>
<g>
	<path class="st0" d="M15.4,21.1c-3.3-1.8-5.5-5.3-5.5-9.4C9.9,5.8,14.7,1,20.6,1s10.7,4.8,10.7,10.7c0,4-2.2,7.5-5.5,9.3"/>
	<path class="st0" d="M33,24.7c-3.7-3-8.5-4.7-13.6-4.4c-8,0.5-14.9,6-17.4,13.6c-0.8,2.3-1,4.5-1,6.6c0.1,2.6,2.3,4.6,4.9,4.6h22.7
		"/>
	<g>
		<path class="st1" d="M39.6,26.4v8.2h7.9v2.1h-7.9V45h-2.2v-8.3h-7.9v-2.1h7.9v-8.2H39.6z"/>
	</g>
</g>
</svg>
