<?xml version="1.0" encoding="utf-8"?>
<!-- Generator: Adobe Illustrator 25.2.1, SVG Export Plug-In . SVG Version: 6.00 Build 0)  -->
<svg version="1.1" id="Layer_1" xmlns="http://www.w3.org/2000/svg" xmlns:xlink="http://www.w3.org/1999/xlink" x="0px" y="0px"
	 viewBox="0 0 169.38 169.38" style="enable-background:new 0 0 169.38 169.38;" xml:space="preserve">
<style type="text/css">
	.st0{fill:#EBEBEB;}
	.st1{fill:#0079C4;stroke:#0079C4;stroke-miterlimit:10;}
	.st2{fill:#FFFFFF;stroke:#FFFFFF;stroke-linecap:square;stroke-miterlimit:10;}
	.st3{fill:#FFFFFF;stroke:#FFFFFF;stroke-miterlimit:10;}
	.st4{fill:none;stroke:#000000;stroke-width:10;stroke-miterlimit:10;}
	.st5{fill:none;stroke:#0079C4;stroke-width:3;stroke-linecap:round;stroke-miterlimit:10;}
	.st6{fill:#0079C4;}
	.st7{fill:none;stroke:#0079C4;stroke-width:4;stroke-linecap:round;stroke-miterlimit:10;}
</style>
<g>
	<g>
		<circle class="st0" cx="84.69" cy="84.69" r="84.69"/>
		<g>
			<path class="st1" d="M84.08,124.36c-4.86,0-9.72-0.01-14.58,0.01c-2.08,0.01-3.91-0.62-5.42-1.97c-1.41-1.26-2.21-2.85-2.41-4.69
				c-0.19-1.85-0.27-3.7-0.35-5.56c-0.07-1.57-0.18-3.14-0.25-4.71c-0.09-1.87-0.25-3.74-0.37-5.6c-0.06-0.97-0.06-1.95-0.13-2.92
				c-0.16-2.31-0.3-4.62-0.44-6.92c-0.1-1.63-0.19-3.27-0.27-4.9c-0.11-2.26-0.22-4.52-0.43-6.78c-0.1-1-0.06-2.01-0.13-3.02
				c-0.21-2.92-0.32-5.84-0.56-8.76c-0.09-1.01-0.07-2.04-0.14-3.06c-0.15-2.2-0.28-4.4-0.43-6.59C58.09,58,58.11,57.12,58,56.24
				c-0.07-0.6-0.04-0.61-0.7-0.61c-0.94,0-1.89-0.02-2.83,0c-0.42,0.01-0.58-0.15-0.54-0.53c0.02-0.2,0.07-0.41,0.07-0.61
				c0-0.92-0.09-0.89,1.01-0.89c5.18,0,10.35-0.01,15.53,0.01c0.5,0,0.66-0.14,0.65-0.62c-0.03-1.12-0.02-2.24-0.01-3.36
				c0.02-3.64,3.44-6.38,7.12-5.99c0.21,0.02,0.43,0.04,0.64,0.02c1.95-0.18,3.9-0.02,5.84-0.03c2.09-0.01,4.19-0.09,6.29,0.04
				c2.37,0.14,4.55,1.73,5.44,4.03c0.26,0.67,0.39,1.36,0.39,2.08c-0.01,1.07,0,2.14,0,3.21c0,0.58,0.02,0.61,0.64,0.61
				c5.31,0,10.62,0,15.92,0c0.82,0,0.82,0,0.82,0.77c0,1.25,0,1.25-1.31,1.25c-0.71,0-1.42,0.02-2.13-0.01
				c-0.44-0.02-0.59,0.18-0.62,0.55c-0.04,0.75-0.1,1.51-0.14,2.26c-0.08,1.76-0.22,3.52-0.34,5.27c-0.04,0.55-0.13,1.1-0.11,1.65
				c0.04,1.63-0.2,3.24-0.25,4.86c-0.04,1.79-0.23,3.58-0.35,5.37c-0.04,0.63-0.09,1.26-0.11,1.88c-0.08,2.12-0.19,4.24-0.37,6.36
				c-0.11,1.25-0.15,2.51-0.22,3.77c-0.13,2.17-0.21,4.33-0.37,6.5c-0.1,1.38-0.14,2.77-0.26,4.15c-0.17,2.04-0.13,4.09-0.35,6.13
				c-0.13,1.25-0.12,2.51-0.23,3.77c-0.23,2.67-0.24,5.34-0.47,8.01c-0.08,0.91-0.04,1.82-0.3,2.72c-0.69,2.4-2.27,4.03-4.64,5.02
				c-0.9,0.38-1.84,0.48-2.81,0.48C93.97,124.35,89.02,124.35,84.08,124.36C84.08,124.35,84.08,124.36,84.08,124.36z M83.99,45.69
				c-2.05,0-4.1,0-6.15,0c-2.72,0-4.55,1.75-4.55,4.33c0,0.96,0,1.92,0,2.88c0,0.7,0,0.71,0.73,0.7c4.46-0.02,8.92-0.05,13.38-0.07
				c2.18-0.01,4.36,0,6.55-0.01c0.75,0,0.76,0,0.76-0.74c0-0.93,0-1.86,0-2.79c-0.01-2.57-1.82-4.3-4.51-4.31
				C88.13,45.69,86.06,45.69,83.99,45.69z"/>
		</g>
	</g>
	<path class="st2" d="M91.13,113.13c0.1-2.84,0.2-5.69,0.32-8.53c0.09-2.23,0.2-4.45,0.28-6.68c0.11-2.77,0.2-5.54,0.31-8.31
		c0.09-2.17,0.18-4.33,0.29-6.5c0.14-2.74,0.21-5.48,0.31-8.22c0.09-2.27,0.21-4.54,0.3-6.82c0.03-0.74,0.08-1.47,0.08-2.21
		c0-0.37,0.16-0.53,0.57-0.49c0.08,0.01,0.17,0,0.25,0c1.47,0.02,1.33-0.22,1.26,1.22c-0.12,2.66-0.21,5.33-0.3,7.99
		c-0.08,2.32-0.18,4.64-0.3,6.95c-0.13,2.65-0.23,5.3-0.31,7.95c-0.09,3.07-0.24,6.14-0.39,9.21c-0.08,1.73-0.14,3.46-0.2,5.19
		c-0.11,3.25-0.23,6.5-0.4,9.75c-0.06,1.12,0.06,0.96-1.12,0.97c-0.97,0.01-0.97,0-0.96-0.89
		C91.12,113.52,91.12,113.32,91.13,113.13C91.12,113.13,91.13,113.13,91.13,113.13z"/>
	<path class="st2" d="M77.16,113.33c0,0.02,0,0.03,0,0.05c-0.04,0.38,0.22,0.9-0.12,1.12c-0.44,0.29-1.06,0.09-1.59,0.09
		c-0.27,0-0.29-0.2-0.3-0.39c-0.06-0.89-0.13-1.77-0.16-2.66c-0.08-2.02-0.15-4.03-0.22-6.05c-0.1-2.76-0.18-5.51-0.32-8.26
		c-0.11-2.24-0.19-4.48-0.29-6.73c-0.12-2.72-0.22-5.45-0.31-8.18c-0.07-2.17-0.17-4.33-0.28-6.5c-0.14-2.71-0.24-5.42-0.32-8.13
		c-0.02-0.62-0.06-1.23-0.08-1.85c-0.01-0.36,0.14-0.49,0.52-0.47c0.25,0.02,0.5,0,0.74,0c0.8,0,0.81,0.02,0.83,0.77
		c0.1,2.88,0.21,5.75,0.32,8.63c0.06,1.75,0.13,3.49,0.2,5.24c0.13,3.12,0.25,6.23,0.4,9.35c0.08,1.6,0.14,3.19,0.19,4.79
		c0.11,3.3,0.26,6.59,0.4,9.89c0.06,1.37,0.12,2.74,0.18,4.11C77.02,109.87,77.09,111.6,77.16,113.33
		C77.15,113.33,77.16,113.33,77.16,113.33z"/>
</g>
</svg>
