<?xml version="1.0" encoding="utf-8"?>
<!-- Generator: Adobe Illustrator 25.2.1, SVG Export Plug-In . SVG Version: 6.00 Build 0)  -->
<svg version="1.1" id="Layer_1" xmlns="http://www.w3.org/2000/svg" xmlns:xlink="http://www.w3.org/1999/xlink" x="0px" y="0px"
	 viewBox="0 0 169.38 169.38" style="enable-background:new 0 0 169.38 169.38;" xml:space="preserve">
<style type="text/css">
	.st0{fill:#EBEBEB;}
	.st1{fill:#0079C4;stroke:#0079C4;stroke-miterlimit:10;}
	.st2{fill:#FFFFFF;stroke:#FFFFFF;stroke-linecap:square;stroke-miterlimit:10;}
	.st3{fill:#FFFFFF;stroke:#FFFFFF;stroke-miterlimit:10;}
	.st4{fill:none;stroke:#000000;stroke-width:10;stroke-miterlimit:10;}
	.st5{fill:none;stroke:#0079C4;stroke-width:3;stroke-linecap:round;stroke-miterlimit:10;}
	.st6{fill:#0079C4;}
	.st7{fill:none;stroke:#0079C4;stroke-width:4;stroke-linecap:round;stroke-miterlimit:10;}
</style>
<g>
	<circle class="st0" cx="84.69" cy="84.69" r="84.69"/>
	<g>
		<path class="st1" d="M75.86,96.03c2.66-0.45,5.29-0.88,7.87-1.32c-2.18-2.19-4.35-4.37-6.54-6.57
			C76.75,90.74,76.31,93.34,75.86,96.03z"/>
		<path class="st5" d="M95.17,55.06H57.63c-3,0-5.43,2.43-5.43,5.43v53.75c0,3,2.43,5.43,5.43,5.43h53.75c3,0,5.43-2.43,5.43-5.43
			V76.77"/>
		<g>
			<path class="st1" d="M108.23,54.56c-9.68,9.68-21.7,21.7-29.48,29.48c3.03,3.03,6.08,6.09,9.13,9.14
				c7.83-7.84,19.99-19.99,29.68-29.69L108.23,54.56z"/>
			<path class="st1" d="M118.84,47.61h-3.65c-1.12,1.12-2.36,2.36-3.66,3.66l9.33,8.93c1.21-1.21,2.36-2.36,3.41-3.41v-3.75
				C124.27,50.04,121.84,47.61,118.84,47.61z"/>
		</g>
	</g>
</g>
</svg>
