<?xml version="1.0" encoding="utf-8"?>
<!-- Generator: Adobe Illustrator 25.2.1, SVG Export Plug-In . SVG Version: 6.00 Build 0)  -->
<svg version="1.1" id="Layer_1" xmlns="http://www.w3.org/2000/svg" xmlns:xlink="http://www.w3.org/1999/xlink" x="0px" y="0px"
	 viewBox="0 0 169.38 169.38" style="enable-background:new 0 0 169.38 169.38;" xml:space="preserve">
<style type="text/css">
	.st0{fill:#EBEBEB;}
	.st1{fill:#0079C4;stroke:#0079C4;stroke-miterlimit:10;}
	.st2{fill:#FFFFFF;stroke:#FFFFFF;stroke-linecap:square;stroke-miterlimit:10;}
	.st3{fill:#FFFFFF;stroke:#FFFFFF;stroke-miterlimit:10;}
	.st4{fill:none;stroke:#000000;stroke-width:10;stroke-miterlimit:10;}
	.st5{fill:none;stroke:#0079C4;stroke-width:3;stroke-linecap:round;stroke-miterlimit:10;}
	.st6{fill:#0079C4;}
	.st7{fill:none;stroke:#0079C4;stroke-width:4;stroke-linecap:round;stroke-miterlimit:10;}
</style>
<g>
	<circle class="st0" cx="84.69" cy="84.69" r="84.69"/>
	<g>
		<path class="st6" d="M110.86,58.37l6.46-6.46L97.31,54.7l-0.83,4.74c0.17,0.08,0.33,0.16,0.5,0.24c-0.17-0.08-0.33-0.16-0.5-0.24
			l-2.8,16.1l7.94-7.94c0.01,0.01,0.01,0.01,0.02,0.02l2.7-2.7c-0.98-0.99-2.04-1.9-3.17-2.72c6.66,4.88,10.99,12.77,10.99,21.66
			c0,14.82-12.02,26.84-26.84,26.84c-0.28,0-0.56-0.01-0.83-0.01l-1.59,9.13c8.82,0.6,18.34-1.97,26.25-8.95
			c7.1-6.27,11.16-14.2,12.01-23.63C122.17,76.1,118.57,66.51,110.86,58.37z M97.49,59.93c-0.12-0.06-0.23-0.12-0.35-0.17
			C97.25,59.82,97.37,59.87,97.49,59.93z M99.71,61.2c0.49,0.31,0.97,0.64,1.44,0.98C100.68,61.84,100.2,61.51,99.71,61.2z
			 M97.65,60.02c0.12,0.06,0.25,0.13,0.37,0.19C97.9,60.15,97.77,60.08,97.65,60.02z M98.14,60.28c0.16,0.09,0.33,0.18,0.49,0.27
			C98.46,60.46,98.3,60.37,98.14,60.28z M98.68,60.58c0.14,0.08,0.28,0.17,0.43,0.25C98.97,60.75,98.83,60.66,98.68,60.58z
			 M99.23,60.9c0.13,0.08,0.25,0.16,0.38,0.23C99.48,61.06,99.35,60.98,99.23,60.9z"/>
		<path class="st6" d="M58.48,83.86c0-14.82,12.02-26.84,26.84-26.84c0.41,0,0.81,0.01,1.21,0.03l1.59-9.12
			c-8.23-0.64-17.22,1.46-25.02,7.6c-7.16,5.63-11.67,12.98-13.2,21.96c-2.07,12.12,1.35,22.64,9.76,31.75l-6.38,6.38l20.01-2.79
			l0.8-4.58c0,0,0,0,0,0l2.83-16.25L66.21,102.7C61.43,97.86,58.48,91.21,58.48,83.86z M73.65,108.04c0.02,0.01,0.03,0.02,0.05,0.02
			C73.69,108.05,73.67,108.05,73.65,108.04z M73.17,107.8c0.05,0.03,0.1,0.05,0.15,0.08C73.27,107.85,73.22,107.82,73.17,107.8z
			 M66.61,103.1c-0.12-0.11-0.23-0.23-0.35-0.35C66.37,102.87,66.49,102.98,66.61,103.1z M72.86,107.64
			c-0.06-0.03-0.12-0.06-0.18-0.09C72.74,107.58,72.8,107.61,72.86,107.64z M72.4,107.39c-0.14-0.08-0.28-0.16-0.42-0.23
			C72.12,107.23,72.26,107.31,72.4,107.39z M71.76,107.03c-0.09-0.05-0.17-0.1-0.26-0.15C71.59,106.92,71.67,106.97,71.76,107.03z
			 M71.29,106.75c-0.1-0.06-0.19-0.12-0.29-0.18C71.1,106.63,71.2,106.69,71.29,106.75z M70.84,106.46
			c-0.31-0.2-0.62-0.41-0.92-0.62C70.22,106.05,70.53,106.26,70.84,106.46z M69.82,105.78c-0.13-0.09-0.25-0.18-0.38-0.27
			C69.57,105.59,69.7,105.69,69.82,105.78z M69.36,105.44c-0.15-0.11-0.29-0.22-0.44-0.33C69.06,105.22,69.21,105.33,69.36,105.44z
			 M68.91,105.1c-0.31-0.24-0.62-0.49-0.92-0.74C68.3,104.61,68.6,104.86,68.91,105.1z M67.95,104.32
			c-0.14-0.12-0.28-0.24-0.41-0.36C67.67,104.08,67.81,104.2,67.95,104.32z M67.51,103.94c-0.29-0.26-0.58-0.53-0.86-0.8
			C66.93,103.41,67.22,103.68,67.51,103.94z"/>
	</g>
</g>
</svg>
